# xmcd CD database file
#
# Track frame offsets:
#	150
#	21457
#	42395
#	64337
#	88477
#	106092
#	131327
#	146957
#	172487
#	190700
#	206647
#
# Disc length: 3088 seconds
#
# Revision: 3
# Processed by: cddbd v1.5.1PL0 Copyright (c) Steve Scherf et al.
# Submitted via: CDex 1.51
#
DISCID=ae0c0e0b
DTITLE=B. B. King - King Of The Blues
DYEAR=1989
DGENRE=Blues
TTITLE0=(You've Become A) Habit To Me
TTITLE1=Drowning In The Sea Of Love
TTITLE2=Can't Get Enough
TTITLE3=Standing On The Edge
TTITLE4=Go On
TTITLE5=Let's Straighten It Out
TTITLE6=Change In Your Lovin'
TTITLE7=Undercover Man
TTITLE8=Lay Another Log On The Fire
TTITLE9=Business With My Baby Tonight
TTITLE10=Take Off Your Shoes
EXTD=YEAR: 1989
EXTT0=
EXTT1=
EXTT2=
EXTT3=
EXTT4=
EXTT5=
EXTT6=
EXTT7=
EXTT8=
EXTT9=
EXTT10=
PLAYORDER=
